<svg width="17" height="27" viewBox="0 0 17 27" fill="none" xmlns="http://www.w3.org/2000/svg">
<path fill-rule="evenodd" clip-rule="evenodd" d="M3.1987 2.84554C3.1987 1.96509 4.31602 1.91135 4.31602 2.84554V21.5722C4.31602 22.4432 3.1987 22.5301 3.1987 21.5722V2.84554ZM0.00329593 21.784C0.599859 22.0812 1.30848 22.5254 1.9034 22.8858L7.51142 26.1531C7.5279 20.7281 7.51142 15.3015 7.51142 9.87653C7.51142 8.70207 7.63502 2.47092 7.41419 1.87499C6.96265 0.657845 5.67229 0.860175 4.20725 0.860175C2.81967 0.860175 1.38099 0.8254 0 0.866498L0.00329593 21.784Z" fill="white"/>
<path fill-rule="evenodd" clip-rule="evenodd" d="M9.03578 26.142C9.32253 26.063 10.5371 25.3026 10.8799 25.0956C12.3367 24.2151 14.1939 23.1908 15.5815 22.3198C15.8089 22.176 16.3396 21.8472 16.5406 21.7792L16.5472 18.934C16.328 18.8407 15.9803 18.6289 15.7545 18.485C15.4513 18.2938 15.2783 18.2068 14.9717 18.0235C14.6323 17.8211 13.6863 17.211 13.3518 17.0988C13.3238 18.5672 13.3633 20.0452 13.3518 21.5137C13.3436 22.5585 12.4092 22.3467 12.2576 21.8488C12.1784 21.588 12.2312 6.78148 12.2312 4.12589C12.2312 3.54103 12.04 2.41398 12.5707 2.23536C13.4869 1.92712 13.3485 3.0842 13.3485 3.67855C13.3485 5.6244 13.2628 8.67516 13.3584 10.3792C13.8182 10.6969 14.4213 10.9972 14.9207 11.2976C15.4035 11.5884 16.0594 12.0357 16.5357 12.2286L16.5472 0.87279L9.03743 0.869629L9.03413 26.1451L9.03578 26.142Z" fill="white"/>
</svg>
