<svg width="28" height="29" viewBox="0 0 28 29" fill="none" xmlns="http://www.w3.org/2000/svg">
<path d="M26.1607 12.1201C26.8028 10.2434 26.5806 8.18932 25.5508 6.48309C24.0025 3.86739 20.8906 2.5219 17.8514 3.15412C16.1387 1.30517 13.5401 0.482973 11.0336 0.997037C8.52722 1.5111 6.49349 3.28339 5.698 5.64677C3.70165 6.04411 1.97861 7.25724 0.969798 8.97574C-0.595382 11.5872 -0.240127 14.8813 1.84829 17.1217C1.20379 18.9974 1.42403 21.0518 2.45261 22.7586C4.00286 25.3752 7.11682 26.7206 10.1576 26.0876C11.5101 27.5657 13.4532 28.4067 15.4901 28.3957C18.6053 28.3984 21.3651 26.4466 22.3166 23.5678C24.3127 23.1698 26.0355 21.9568 27.0448 20.2388C28.5911 17.632 28.2343 14.3556 26.1607 12.1201ZM15.4901 26.5926C14.2467 26.5945 13.0423 26.1716 12.0881 25.3979L12.2559 25.3056L17.9074 22.1395C18.1935 21.9767 18.37 21.6795 18.3718 21.3575V13.6243L20.7611 14.9657C20.785 14.9775 20.8016 14.9997 20.8058 15.0254V21.4336C20.7997 24.2804 18.4234 26.5867 15.4901 26.5926ZM4.06411 21.8571C3.44055 20.8122 3.21666 19.5872 3.43182 18.3978L3.59968 18.4956L9.25673 21.6616C9.54176 21.824 9.89497 21.824 10.18 21.6616L17.0904 17.795V20.4723C17.0891 20.5004 17.0747 20.5264 17.0513 20.5429L11.3271 23.747C8.78341 25.1692 5.53355 24.3236 4.06411 21.8571ZM2.57571 9.9098C3.20359 8.85807 4.19466 8.05587 5.37346 7.64524V14.162C5.36913 14.4826 5.54493 14.7802 5.83229 14.9385L12.7092 18.7888L10.3199 20.1302C10.2936 20.1437 10.2622 20.1437 10.2359 20.1302L4.52294 16.9316C1.98427 15.5035 1.11363 12.3518 2.57571 9.88265V9.9098ZM22.2047 14.3357L15.3055 10.4474L17.6892 9.1115C17.7154 9.09799 17.7468 9.09799 17.7731 9.1115L23.4861 12.3156C25.2692 13.3142 26.2978 15.2222 26.1266 17.2132C25.9553 19.2043 24.6149 20.9203 22.6859 21.6182V15.1015C22.6759 14.7817 22.493 14.4908 22.2047 14.3357ZM24.5828 10.8656L24.4149 10.7678L18.7691 7.57464C18.4823 7.41133 18.127 7.41133 17.8402 7.57464L10.9354 11.4412V8.76394C10.9324 8.73622 10.9453 8.70912 10.969 8.69335L16.682 5.49472C18.4694 4.49534 20.6909 4.5886 22.3828 5.73404C24.0746 6.87948 24.932 8.87071 24.5828 10.8439V10.8656ZM9.63163 15.6119L7.24235 14.276C7.21821 14.2618 7.20181 14.2379 7.19759 14.2108V7.81902C7.20031 5.81737 8.39454 3.99751 10.2623 3.14869C12.1301 2.29987 14.3351 2.57496 15.921 3.85467L15.7531 3.94699L10.1017 7.11304C9.81552 7.27592 9.63903 7.57311 9.63723 7.89505L9.63163 15.6119ZM10.9298 12.8966L14.0073 11.1751L17.0904 12.8966V16.3396L14.0185 18.0611L10.9354 16.3396L10.9298 12.8966Z" fill="white"/>
</svg>
